<svg id="Layer_1" data-name="Layer 1" xmlns="http://www.w3.org/2000/svg" viewBox="0 0 567 118"><path d="M89,12.69c2,2.21,1.7,4.59-.68,6.63L76.58,29.52c-2.38,2-4.42,1.7-6.8-.51-4.08-3.57-9.52-5.44-16.32-5.44-9.35,0-15.3,5.1-15.3,13.26,0,5.27,3.74,8,16.15,10,21.76,3.57,30.26,12.75,30.26,29.92,0,25.16-16.49,40.63-43.35,40.63-17.51,0-30.26-4.94-38.93-15C.42,100.24.76,97.86,3,95.82l11.9-10.2c2.38-2,4.42-1.7,6.8.51,5.44,5.44,12.41,8.16,21.08,8.16,9.86,0,15.13-4.76,15.13-13.43,0-5.28-3.74-7.82-16.15-10C19.8,66.92,11.47,57.91,11.47,40.91,11.47,16.09,28.3.45,54.82.45,70.12.45,81.34,4.36,89,12.69Z"/><path d="M140.16,111c-.51,2.88-2.21,4.42-5.1,4.42h-17c-3.23,0-4.76-1.87-4.25-5.11l13.26-84.65H104.8c-3.23,0-4.76-1.87-4.25-5.1l2-13.6c.51-2.89,2.21-4.42,5.1-4.42h72.08c3.23,0,4.76,1.87,4.25,5.1l-2,13.6c-.51,2.89-2.21,4.42-5.1,4.42H153.59Z"/><path d="M260.86,109.92c1.35,3.24-.17,5.45-3.74,5.45h-19a5.16,5.16,0,0,1-5.44-3.91l-11.9-36.55h-6.46l-5.78,36c-.51,2.88-2.21,4.42-5.1,4.42h-17c-3.23,0-4.76-1.87-4.25-5.11L198.47,6.91c.51-2.89,2.21-4.42,5.1-4.42H235c24.31,0,37.23,10.71,37.23,31.79,0,20.23-9,33.49-26.18,38.25ZM232.13,25.61h-10l-4.25,26.86h10c12.24,0,17.5-5.1,17.5-16C245.38,29,241,25.61,232.13,25.61Z"/><path d="M362.34,78.65c-4.08,25.5-18.7,38.76-43.86,38.76-23.45,0-37.05-11.74-37.05-32.13a48.4,48.4,0,0,1,.68-8.33l11-70c.51-2.89,2.22-4.42,5.1-4.42h17c3.23,0,4.76,1.87,4.25,5.1L308.63,76.44a34.32,34.32,0,0,0-.51,5.6c0,8.34,3.91,12.25,11.89,12.25,9.53,0,15-5.62,16.83-17.85L347.89,6.91C348.4,4,350.1,2.49,353,2.49h16.32c3.23,0,4.76,1.87,4.25,5.1Z"/><path d="M436,85.11c2-2.72,4.42-3.07,6.79-1.19l10.88,9c2.38,1.87,2.72,4.25.85,6.63-9.69,12.41-20.91,17.86-36.72,17.86-23.8,0-37.9-12.24-37.9-33.33a48.44,48.44,0,0,1,.68-8.32l5.6-35.36C390.22,14.22,405.36.45,432.21.45c15.64,0,27.71,6.46,34.17,18.87,1.36,2.72.51,4.93-2,6.46l-12.41,7.48c-2.55,1.53-4.76.85-6.46-1.87-3.57-5.1-8.16-7.82-14.79-7.82-10,0-16.48,6.8-18.53,19.72l-4.93,31.28a36.32,36.32,0,0,0-.51,5.78c0,9.18,4.42,13.94,12.75,13.94C425.92,94.29,431.2,91.4,436,85.11Z"/><path d="M562.6,2.49c4.08,0,5.27,2.72,2.72,5.78L524.69,58.42l25.84,51.33c1.7,3.24.34,5.62-3.4,5.62H526.56a5.75,5.75,0,0,1-5.61-3.58l-20.23-45h-.34L493.24,111c-.51,2.88-2.21,4.42-5.1,4.42h-17c-3.23,0-4.76-1.87-4.25-5.11L483.21,6.91c.51-2.89,2.21-4.42,5.1-4.42h17c3.23,0,4.76,1.87,4.25,5.1L503.1,47.2h.34l32.3-41.82a6.53,6.53,0,0,1,5.78-2.89Z"/></svg>