<svg id="Layer_1" data-name="Layer 1" xmlns="http://www.w3.org/2000/svg" viewBox="0 0 1000 1000"><defs><style>.cls-1{font-size:170px;font-family:Kiro-ExtraBoldItalic, Kiro;font-weight:800;font-style:italic;}.cls-1,.cls-3{fill:#fff;}.cls-2{letter-spacing:0em;}</style></defs><text class="cls-1" transform="translate(271.25 556.36)">ST<tspan class="cls-2" x="176.8" y="0">R</tspan><tspan x="273.02" y="0">UCK</tspan></text><path class="cls-3" d="M197.53,526.67h-6.29a2.67,2.67,0,0,1-2.53-3.52L215,444.85a2.67,2.67,0,0,0-2.53-3.52H195.33a2.66,2.66,0,0,1-2.56-3.4l13.29-46.53a2.67,2.67,0,0,0-2.56-3.4H174.91a2.67,2.67,0,0,0-2.64,2.29l-9.9,69.33a2.67,2.67,0,0,0,2.64,3.05h15.18a2.67,2.67,0,0,1,2.64,3L173,534.29a2.67,2.67,0,0,0,2.64,3h4.52a2.67,2.67,0,0,1,2.64,3L172.6,612l27.46-81.82A2.66,2.66,0,0,0,197.53,526.67Z"/></svg>