<svg id="Layer_1" data-name="Layer 1" xmlns="http://www.w3.org/2000/svg" viewBox="0 0 1000 1000"><defs><style>.cls-1{fill:#fff;}</style></defs><path class="cls-1" d="M516.33,399.5H504.65A5,5,0,0,1,500,393l48.79-145.33a5,5,0,0,0-4.7-6.53h-31.8a5,5,0,0,1-4.76-6.31l24.68-86.37a5,5,0,0,0-4.77-6.31H474.34a5,5,0,0,0-4.91,4.25L451.05,275.05a5,5,0,0,0,4.9,5.66h28.18a5,5,0,0,1,4.9,5.65L470.85,413.64a5,5,0,0,0,4.9,5.65h8.38A5,5,0,0,1,489,425L470,557.88,521,406A5,5,0,0,0,516.33,399.5Z"/><path class="cls-1" d="M236.06,658.38c2.77,3,2.31,6.21-.92,9l-15.88,13.81c-3.23,2.76-6,2.3-9.21-.69-5.53-4.84-12.9-7.37-22.1-7.37-12.67,0-20.73,6.91-20.73,18,0,7.14,5.07,10.82,21.88,13.58,29.47,4.84,41,17.27,41,40.52,0,34.08-22.33,55-58.71,55-23.72,0-41-6.68-52.73-20.26-2.53-3-2.07-6.22.93-9l16.11-13.81c3.23-2.77,6-2.31,9.21.69,7.37,7.37,16.81,11,28.55,11,13.35,0,20.49-6.45,20.49-18.19,0-7.14-5.06-10.59-21.87-13.58-29.7-5.3-41-17.5-41-40.52,0-33.62,22.79-54.8,58.71-54.8C210.51,641.8,225.7,647.09,236.06,658.38Z"/><path class="cls-1" d="M305.36,791.45c-.69,3.92-3,6-6.9,6h-23c-4.37,0-6.44-2.53-5.75-6.91l18-114.66H257.47c-4.37,0-6.44-2.53-5.75-6.9l2.76-18.42c.69-3.92,3-6,6.91-6H359c4.37,0,6.45,2.53,5.76,6.91L362,669.89c-.69,3.91-3,6-6.91,6H323.55Z"/><path class="cls-1" d="M468.83,790.07c1.84,4.38-.23,7.37-5.06,7.37H438c-3.68,0-6.22-1.61-7.37-5.3l-16.11-49.5h-8.75l-7.83,48.81c-.69,3.92-3,6-6.91,6H368c-4.38,0-6.45-2.53-5.76-6.91l22.1-140c.69-3.92,3-6,6.91-6h42.6c32.92,0,50.42,14.51,50.42,43.05,0,27.4-12.21,45.36-35.46,51.81Zm-38.91-114.2H416.34l-5.76,36.38h13.58c16.58,0,23.72-6.91,23.72-21.64C447.88,680.48,441.89,675.87,429.92,675.87Z"/><path class="cls-1" d="M606.28,747.71c-5.52,34.53-25.33,52.49-59.4,52.49-31.77,0-50.19-15.89-50.19-43.51a65.81,65.81,0,0,1,.92-11.29l15-94.85c.69-3.92,3-6,6.9-6h23c4.37,0,6.44,2.53,5.75,6.91l-14.73,93.24a46.67,46.67,0,0,0-.69,7.6c0,11.28,5.29,16.58,16.11,16.58,12.9,0,20.26-7.6,22.8-24.18l15-94.16c.69-3.92,3-6,6.91-6h22.1c4.38,0,6.45,2.53,5.76,6.91Z"/><path class="cls-1" d="M706,756.46c2.77-3.69,6-4.15,9.22-1.62l14.73,12.21c3.22,2.53,3.68,5.75,1.15,9-13.12,16.8-28.32,24.17-49.73,24.17-32.23,0-51.34-16.58-51.34-45.13a65.78,65.78,0,0,1,.92-11.28l7.6-47.89c5.52-35.45,26-54.1,62.39-54.1,21.18,0,37.53,8.75,46.28,25.56,1.84,3.68.69,6.67-2.76,8.74l-16.81,10.13c-3.46,2.08-6.45,1.15-8.75-2.53-4.84-6.91-11-10.59-20-10.59-13.59,0-22.34,9.21-25.1,26.71l-6.67,42.36a48.19,48.19,0,0,0-.7,7.83c0,12.43,6,18.88,17.27,18.88C692.39,768.89,699.53,765,706,756.46Z"/><path class="cls-1" d="M877.5,644.56c5.53,0,7.14,3.68,3.69,7.83l-55,67.92,35,69.53c2.3,4.38.46,7.6-4.61,7.6H828.69c-3.68,0-6-1.61-7.6-4.84l-27.39-61h-.47l-9.67,59.86c-.69,3.92-3,6-6.9,6h-23c-4.37,0-6.44-2.53-5.75-6.91l22.1-140c.69-3.92,3-6,6.91-6h23c4.38,0,6.45,2.53,5.76,6.91l-8.75,53.64h.46l43.74-56.63a8.85,8.85,0,0,1,7.83-3.92Z"/></svg>