<svg id="Layer_1" data-name="Layer 1" xmlns="http://www.w3.org/2000/svg" viewBox="0 0 1000 1000"><defs><style>.cls-1{fill:#fff;}</style></defs><path class="cls-1" d="M535.83,608.62H510.2a10.88,10.88,0,0,1-10.31-14.33L607,275.36A10.87,10.87,0,0,0,596.66,261H526.87a10.87,10.87,0,0,1-10.45-13.85L570.57,57.65a10.87,10.87,0,0,0-10.45-13.86H443.68a10.87,10.87,0,0,0-10.76,9.33l-40.34,282.4a10.87,10.87,0,0,0,10.76,12.41h61.83a10.88,10.88,0,0,1,10.76,12.41L436,639.66a10.87,10.87,0,0,0,10.76,12.41h18.38a10.88,10.88,0,0,1,10.76,12.41L434.25,956.21,546.13,623A10.87,10.87,0,0,0,535.83,608.62Z"/></svg>