<svg id="Layer_1" data-name="Layer 1" xmlns="http://www.w3.org/2000/svg" viewBox="0 0 1000 1000"><defs><style>.cls-1{fill:#282c34;}.cls-2{fill:#0984e3;}</style></defs><title>vudesigner_logo</title><path class="cls-1" d="M461.5,738.92l92.17-159.28h84.86a65,65,0,0,0,56.28-32.5l54.43-94.29c12.51-21.66-3.12-48.74-28.14-48.74H478l82.6-143h230c112.58,0,182.93,121.89,126.61,219.37L813.36,660.36a157.06,157.06,0,0,1-136,78.56Z"/><path class="cls-2" d="M338.88,738.92,614.74,261.08H468.36a65,65,0,0,0-56.28,32.49l-73.2,126.79-73.2-126.79a65,65,0,0,0-56.28-32.49H63Z"/></svg>