<svg xmlns="http://www.w3.org/2000/svg" xmlns:xlink="http://www.w3.org/1999/xlink" width="770" height="500" viewBox="0 0 770 500">
  <defs>
    <clipPath id="clip-path">
      <rect width="215" height="94" fill="none"/>
    </clipPath>
    <clipPath id="clip-path-2">
      <rect width="129" height="216" fill="none"/>
    </clipPath>
    <clipPath id="clip-project_manager">
      <rect width="770" height="500"/>
    </clipPath>
  </defs>
  <g id="project_manager" clip-path="url(#clip-project_manager)">
    <g id="Wiederholungsraster_3" data-name="Wiederholungsraster 3" transform="translate(0 391)" opacity="0.4" clip-path="url(#clip-path)">
      <g transform="translate(-89 -298)">
        <circle id="Ellipse_4" data-name="Ellipse 4" cx="4" cy="4" r="4" transform="translate(89 298)" fill="#fff"/>
      </g>
      <g transform="translate(-61 -298)">
        <circle id="Ellipse_4-2" data-name="Ellipse 4" cx="4" cy="4" r="4" transform="translate(89 298)" fill="#fff"/>
      </g>
      <g transform="translate(-33 -298)">
        <circle id="Ellipse_4-3" data-name="Ellipse 4" cx="4" cy="4" r="4" transform="translate(89 298)" fill="#fff"/>
      </g>
      <g transform="translate(-5 -298)">
        <circle id="Ellipse_4-4" data-name="Ellipse 4" cx="4" cy="4" r="4" transform="translate(89 298)" fill="#fff"/>
      </g>
      <g transform="translate(23 -298)">
        <circle id="Ellipse_4-5" data-name="Ellipse 4" cx="4" cy="4" r="4" transform="translate(89 298)" fill="#fff"/>
      </g>
      <g transform="translate(51 -298)">
        <circle id="Ellipse_4-6" data-name="Ellipse 4" cx="4" cy="4" r="4" transform="translate(89 298)" fill="#fff"/>
      </g>
      <g transform="translate(79 -298)">
        <circle id="Ellipse_4-7" data-name="Ellipse 4" cx="4" cy="4" r="4" transform="translate(89 298)" fill="#fff"/>
      </g>
      <g transform="translate(107 -298)">
        <circle id="Ellipse_4-8" data-name="Ellipse 4" cx="4" cy="4" r="4" transform="translate(89 298)" fill="#fff"/>
      </g>
      <g transform="translate(-89 -270)">
        <circle id="Ellipse_4-9" data-name="Ellipse 4" cx="4" cy="4" r="4" transform="translate(89 298)" fill="#fff"/>
      </g>
      <g transform="translate(-61 -270)">
        <circle id="Ellipse_4-10" data-name="Ellipse 4" cx="4" cy="4" r="4" transform="translate(89 298)" fill="#fff"/>
      </g>
      <g transform="translate(-33 -270)">
        <circle id="Ellipse_4-11" data-name="Ellipse 4" cx="4" cy="4" r="4" transform="translate(89 298)" fill="#fff"/>
      </g>
      <g transform="translate(-5 -270)">
        <circle id="Ellipse_4-12" data-name="Ellipse 4" cx="4" cy="4" r="4" transform="translate(89 298)" fill="#fff"/>
      </g>
      <g transform="translate(23 -270)">
        <circle id="Ellipse_4-13" data-name="Ellipse 4" cx="4" cy="4" r="4" transform="translate(89 298)" fill="#fff"/>
      </g>
      <g transform="translate(51 -270)">
        <circle id="Ellipse_4-14" data-name="Ellipse 4" cx="4" cy="4" r="4" transform="translate(89 298)" fill="#fff"/>
      </g>
      <g transform="translate(79 -270)">
        <circle id="Ellipse_4-15" data-name="Ellipse 4" cx="4" cy="4" r="4" transform="translate(89 298)" fill="#fff"/>
      </g>
      <g transform="translate(107 -270)">
        <circle id="Ellipse_4-16" data-name="Ellipse 4" cx="4" cy="4" r="4" transform="translate(89 298)" fill="#fff"/>
      </g>
      <g transform="translate(-89 -242)">
        <circle id="Ellipse_4-17" data-name="Ellipse 4" cx="4" cy="4" r="4" transform="translate(89 298)" fill="#fff"/>
      </g>
      <g transform="translate(-61 -242)">
        <circle id="Ellipse_4-18" data-name="Ellipse 4" cx="4" cy="4" r="4" transform="translate(89 298)" fill="#fff"/>
      </g>
      <g transform="translate(-33 -242)">
        <circle id="Ellipse_4-19" data-name="Ellipse 4" cx="4" cy="4" r="4" transform="translate(89 298)" fill="#fff"/>
      </g>
      <g transform="translate(-5 -242)">
        <circle id="Ellipse_4-20" data-name="Ellipse 4" cx="4" cy="4" r="4" transform="translate(89 298)" fill="#fff"/>
      </g>
      <g transform="translate(23 -242)">
        <circle id="Ellipse_4-21" data-name="Ellipse 4" cx="4" cy="4" r="4" transform="translate(89 298)" fill="#fff"/>
      </g>
      <g transform="translate(51 -242)">
        <circle id="Ellipse_4-22" data-name="Ellipse 4" cx="4" cy="4" r="4" transform="translate(89 298)" fill="#fff"/>
      </g>
      <g transform="translate(79 -242)">
        <circle id="Ellipse_4-23" data-name="Ellipse 4" cx="4" cy="4" r="4" transform="translate(89 298)" fill="#fff"/>
      </g>
      <g transform="translate(107 -242)">
        <circle id="Ellipse_4-24" data-name="Ellipse 4" cx="4" cy="4" r="4" transform="translate(89 298)" fill="#fff"/>
      </g>
      <g transform="translate(-89 -214)">
        <circle id="Ellipse_4-25" data-name="Ellipse 4" cx="4" cy="4" r="4" transform="translate(89 298)" fill="#fff"/>
      </g>
      <g transform="translate(-61 -214)">
        <circle id="Ellipse_4-26" data-name="Ellipse 4" cx="4" cy="4" r="4" transform="translate(89 298)" fill="#fff"/>
      </g>
      <g transform="translate(-33 -214)">
        <circle id="Ellipse_4-27" data-name="Ellipse 4" cx="4" cy="4" r="4" transform="translate(89 298)" fill="#fff"/>
      </g>
      <g transform="translate(-5 -214)">
        <circle id="Ellipse_4-28" data-name="Ellipse 4" cx="4" cy="4" r="4" transform="translate(89 298)" fill="#fff"/>
      </g>
      <g transform="translate(23 -214)">
        <circle id="Ellipse_4-29" data-name="Ellipse 4" cx="4" cy="4" r="4" transform="translate(89 298)" fill="#fff"/>
      </g>
      <g transform="translate(51 -214)">
        <circle id="Ellipse_4-30" data-name="Ellipse 4" cx="4" cy="4" r="4" transform="translate(89 298)" fill="#fff"/>
      </g>
      <g transform="translate(79 -214)">
        <circle id="Ellipse_4-31" data-name="Ellipse 4" cx="4" cy="4" r="4" transform="translate(89 298)" fill="#fff"/>
      </g>
      <g transform="translate(107 -214)">
        <circle id="Ellipse_4-32" data-name="Ellipse 4" cx="4" cy="4" r="4" transform="translate(89 298)" fill="#fff"/>
      </g>
    </g>
    <g id="Wiederholungsraster_4" data-name="Wiederholungsraster 4" transform="translate(641 10)" opacity="0.4" clip-path="url(#clip-path-2)">
      <g transform="translate(-89 -298)">
        <circle id="Ellipse_4-33" data-name="Ellipse 4" cx="4" cy="4" r="4" transform="translate(89 298)" fill="#fff"/>
      </g>
      <g transform="translate(-61 -298)">
        <circle id="Ellipse_4-34" data-name="Ellipse 4" cx="4" cy="4" r="4" transform="translate(89 298)" fill="#fff"/>
      </g>
      <g transform="translate(-33 -298)">
        <circle id="Ellipse_4-35" data-name="Ellipse 4" cx="4" cy="4" r="4" transform="translate(89 298)" fill="#fff"/>
      </g>
      <g transform="translate(-5 -298)">
        <circle id="Ellipse_4-36" data-name="Ellipse 4" cx="4" cy="4" r="4" transform="translate(89 298)" fill="#fff"/>
      </g>
      <g transform="translate(23 -298)">
        <circle id="Ellipse_4-37" data-name="Ellipse 4" cx="4" cy="4" r="4" transform="translate(89 298)" fill="#fff"/>
      </g>
      <g transform="translate(-89 -270)">
        <circle id="Ellipse_4-38" data-name="Ellipse 4" cx="4" cy="4" r="4" transform="translate(89 298)" fill="#fff"/>
      </g>
      <g transform="translate(-61 -270)">
        <circle id="Ellipse_4-39" data-name="Ellipse 4" cx="4" cy="4" r="4" transform="translate(89 298)" fill="#fff"/>
      </g>
      <g transform="translate(-33 -270)">
        <circle id="Ellipse_4-40" data-name="Ellipse 4" cx="4" cy="4" r="4" transform="translate(89 298)" fill="#fff"/>
      </g>
      <g transform="translate(-5 -270)">
        <circle id="Ellipse_4-41" data-name="Ellipse 4" cx="4" cy="4" r="4" transform="translate(89 298)" fill="#fff"/>
      </g>
      <g transform="translate(23 -270)">
        <circle id="Ellipse_4-42" data-name="Ellipse 4" cx="4" cy="4" r="4" transform="translate(89 298)" fill="#fff"/>
      </g>
      <g transform="translate(-89 -242)">
        <circle id="Ellipse_4-43" data-name="Ellipse 4" cx="4" cy="4" r="4" transform="translate(89 298)" fill="#fff"/>
      </g>
      <g transform="translate(-61 -242)">
        <circle id="Ellipse_4-44" data-name="Ellipse 4" cx="4" cy="4" r="4" transform="translate(89 298)" fill="#fff"/>
      </g>
      <g transform="translate(-33 -242)">
        <circle id="Ellipse_4-45" data-name="Ellipse 4" cx="4" cy="4" r="4" transform="translate(89 298)" fill="#fff"/>
      </g>
      <g transform="translate(-5 -242)">
        <circle id="Ellipse_4-46" data-name="Ellipse 4" cx="4" cy="4" r="4" transform="translate(89 298)" fill="#fff"/>
      </g>
      <g transform="translate(23 -242)">
        <circle id="Ellipse_4-47" data-name="Ellipse 4" cx="4" cy="4" r="4" transform="translate(89 298)" fill="#fff"/>
      </g>
      <g transform="translate(-89 -214)">
        <circle id="Ellipse_4-48" data-name="Ellipse 4" cx="4" cy="4" r="4" transform="translate(89 298)" fill="#fff"/>
      </g>
      <g transform="translate(-61 -214)">
        <circle id="Ellipse_4-49" data-name="Ellipse 4" cx="4" cy="4" r="4" transform="translate(89 298)" fill="#fff"/>
      </g>
      <g transform="translate(-33 -214)">
        <circle id="Ellipse_4-50" data-name="Ellipse 4" cx="4" cy="4" r="4" transform="translate(89 298)" fill="#fff"/>
      </g>
      <g transform="translate(-5 -214)">
        <circle id="Ellipse_4-51" data-name="Ellipse 4" cx="4" cy="4" r="4" transform="translate(89 298)" fill="#fff"/>
      </g>
      <g transform="translate(23 -214)">
        <circle id="Ellipse_4-52" data-name="Ellipse 4" cx="4" cy="4" r="4" transform="translate(89 298)" fill="#fff"/>
      </g>
      <g transform="translate(-89 -186)">
        <circle id="Ellipse_4-53" data-name="Ellipse 4" cx="4" cy="4" r="4" transform="translate(89 298)" fill="#fff"/>
      </g>
      <g transform="translate(-61 -186)">
        <circle id="Ellipse_4-54" data-name="Ellipse 4" cx="4" cy="4" r="4" transform="translate(89 298)" fill="#fff"/>
      </g>
      <g transform="translate(-33 -186)">
        <circle id="Ellipse_4-55" data-name="Ellipse 4" cx="4" cy="4" r="4" transform="translate(89 298)" fill="#fff"/>
      </g>
      <g transform="translate(-5 -186)">
        <circle id="Ellipse_4-56" data-name="Ellipse 4" cx="4" cy="4" r="4" transform="translate(89 298)" fill="#fff"/>
      </g>
      <g transform="translate(23 -186)">
        <circle id="Ellipse_4-57" data-name="Ellipse 4" cx="4" cy="4" r="4" transform="translate(89 298)" fill="#fff"/>
      </g>
      <g transform="translate(-89 -158)">
        <circle id="Ellipse_4-58" data-name="Ellipse 4" cx="4" cy="4" r="4" transform="translate(89 298)" fill="#fff"/>
      </g>
      <g transform="translate(-61 -158)">
        <circle id="Ellipse_4-59" data-name="Ellipse 4" cx="4" cy="4" r="4" transform="translate(89 298)" fill="#fff"/>
      </g>
      <g transform="translate(-33 -158)">
        <circle id="Ellipse_4-60" data-name="Ellipse 4" cx="4" cy="4" r="4" transform="translate(89 298)" fill="#fff"/>
      </g>
      <g transform="translate(-5 -158)">
        <circle id="Ellipse_4-61" data-name="Ellipse 4" cx="4" cy="4" r="4" transform="translate(89 298)" fill="#fff"/>
      </g>
      <g transform="translate(23 -158)">
        <circle id="Ellipse_4-62" data-name="Ellipse 4" cx="4" cy="4" r="4" transform="translate(89 298)" fill="#fff"/>
      </g>
      <g transform="translate(-89 -130)">
        <circle id="Ellipse_4-63" data-name="Ellipse 4" cx="4" cy="4" r="4" transform="translate(89 298)" fill="#fff"/>
      </g>
      <g transform="translate(-61 -130)">
        <circle id="Ellipse_4-64" data-name="Ellipse 4" cx="4" cy="4" r="4" transform="translate(89 298)" fill="#fff"/>
      </g>
      <g transform="translate(-33 -130)">
        <circle id="Ellipse_4-65" data-name="Ellipse 4" cx="4" cy="4" r="4" transform="translate(89 298)" fill="#fff"/>
      </g>
      <g transform="translate(-5 -130)">
        <circle id="Ellipse_4-66" data-name="Ellipse 4" cx="4" cy="4" r="4" transform="translate(89 298)" fill="#fff"/>
      </g>
      <g transform="translate(23 -130)">
        <circle id="Ellipse_4-67" data-name="Ellipse 4" cx="4" cy="4" r="4" transform="translate(89 298)" fill="#fff"/>
      </g>
      <g transform="translate(-89 -102)">
        <circle id="Ellipse_4-68" data-name="Ellipse 4" cx="4" cy="4" r="4" transform="translate(89 298)" fill="#fff"/>
      </g>
      <g transform="translate(-61 -102)">
        <circle id="Ellipse_4-69" data-name="Ellipse 4" cx="4" cy="4" r="4" transform="translate(89 298)" fill="#fff"/>
      </g>
      <g transform="translate(-33 -102)">
        <circle id="Ellipse_4-70" data-name="Ellipse 4" cx="4" cy="4" r="4" transform="translate(89 298)" fill="#fff"/>
      </g>
      <g transform="translate(-5 -102)">
        <circle id="Ellipse_4-71" data-name="Ellipse 4" cx="4" cy="4" r="4" transform="translate(89 298)" fill="#fff"/>
      </g>
      <g transform="translate(23 -102)">
        <circle id="Ellipse_4-72" data-name="Ellipse 4" cx="4" cy="4" r="4" transform="translate(89 298)" fill="#fff"/>
      </g>
    </g>
    <path id="widgets-outline" d="M162.928,34.386l32.686,32.686L162.928,99.758,130.242,67.072l32.686-32.686M73.041,40.223V86.917H26.347V40.223H73.041M189.777,156.959v46.694H143.083V156.959h46.694M162.928,1.7,96.389,67.072l66.539,66.539H119.736V227h93.389V133.611h-50.2L228.3,67.072,162.928,1.7M96.389,16.876H3v93.389H96.389V16.876M73.041,156.959v46.694H26.347V156.959H73.041m23.347-23.347H3V227H96.389Z" transform="translate(269 135.3)" fill="#fff"/>
  </g>
</svg>
